<?xml version="1.0" encoding="utf-8"?>
<!-- Generator: Adobe Illustrator 15.0.0, SVG Export Plug-In . SVG Version: 6.00 Build 0)  -->
<!DOCTYPE svg PUBLIC "-//W3C//DTD SVG 1.1//EN" "http://www.w3.org/Graphics/SVG/1.1/DTD/svg11.dtd">
<svg version="1.1" id="Layer_1" xmlns="http://www.w3.org/2000/svg" xmlns:xlink="http://www.w3.org/1999/xlink" x="0px" y="0px"
	 width="493.445px" height="264.646px" viewBox="0 0 493.445 264.646" enable-background="new 0 0 493.445 264.646"
	 xml:space="preserve">
<g>
	<path fill="#FFFFFF" d="M291.668,130.989c-1.34,0.059-10.274,0.746-16.503,10.684c-0.802,1.268-1.138,0.094-1.138,0.094
		c-0.08-0.973,3.872-8.866,0.213-9.159c-3.925-0.314-11.816,1.233-14.544,1.707c-2.955,0.512-0.945,7.296-1.405,8.604
		c-1.517,4.291-38.473,72.924-46.662,83.562c-11.195,14.539-27.401,15.896-27.005,10.205c0.225-3.293,3.697-15.275-7.523-11.887
		c-9.975,3.014-7.776,21.547,8.474,20.672c20.356-1.092,34.4-11.814,45.157-24.18c10.867-12.498,15.348-25.285,17.455-25.457
		c2.106-0.176,4.051,3.434,9.745,3.268c18.175-0.543,43.038-22.604,45.931-48.078C306.208,130.317,293.497,130.905,291.668,130.989z
		 M256.386,191.198c-1.734-0.783-2.892-0.969-2.106-5.678c1.049-6.311,21.678-43.408,33.575-45.203
		C298.333,138.735,267.933,196.389,256.386,191.198z"/>
	<path fill="#FFFFFF" d="M491.308,161.169c-1.066-2.035-2.295-2.275-3.762-1.717c-1.439,0.553-21.438,31.443-28.271,27.816
		c-3.6-1.908,26.254-43.207,29.396-53.28c0.826-2.656-2.103-2.568-5.373-1.914c-3.272,0.652-7.244-2.127-10.299,0.488
		c-3.049,2.617-1.958,3.708-3.049,3.708c-1.092,0-0.577-5.581-10.027-5.014c-10.969,0.658-42.08,17.272-47.988,46.125
		c-4.758,5.076-9.217,7.838-12.204,5.205c-6.227-5.49,55.306-102.252,59.477-116.508c1.519-5.185,1.176-11.373-2.696-12.187
		c-3.696-0.777-18.61,3.45-18.61,3.45c-2.061,1.087-1.106,9.219-4.093,16.831c-5.959,15.146-26.985,45.743-40.766,72.945
		c-6.84,11.451-25.115,42.457-33.047,35.469c-6.228-5.488,55.305-102.25,59.477-116.508c1.518-5.185,1.177-11.371-2.694-12.186
		c-3.697-0.777-18.612,3.451-18.612,3.451c-2.062,1.085-1.103,9.218-4.096,16.83c-6.557,16.681-31.396,52.091-44.694,81.079
		c-5.56,8.08-17.35,35.361-31.604,33.006c-6.761-1.115-3.82-14.811-0.011-17.303c3.408-2.225,30.881-13.09,32.564-28.738
		c1.101-10.279-8.415-11.279-8.415-11.279s-17.377-0.216-32.779,21.638c-15.404,21.85-11.515,34.965-11.127,35.951
		c3.664,9.287,9.979,12.473,20.968,9.922c6.455-1.5,14.731-9.271,22.407-19.791c-1.334,7.928-0.248,14.209,4.49,17.807
		c9.455,7.174,23.816-4.611,35.407-18.777c-1.589,8.387-0.604,15.033,4.325,18.777c6.903,5.234,16.411,0.371,25.553-8.143
		c1.248,10.764,10.191,10.279,10.191,10.279c1.187,0.244,13.403-1.51,23.297-15.244c0.593-0.818-3.508,11.236,6.332,14.879
		C462.128,202.36,493.132,164.649,491.308,161.169z M333.66,137.444c0.82-0.232,4.321-1.57,4.586,1.119
		c1.347,13.822-19.598,28.26-20.444,24.932C316.251,157.401,330.444,138.339,333.66,137.444z M425.672,190.35
		c-2.158-1.152-4.148-3.391-3.024-7.502c5.602-20.488,30.566-49.373,38.287-46.014c2.854,1.24,4.146,3.879-0.552,14.33
		C450.503,173.11,430.934,193.149,425.672,190.35z"/>
	<path fill="#FFFFFF" d="M184.006,150.719c3.273-2.084,41.087-6.996,37.812-0.299c-5.419,11.072-34.534,54.934-31.539,64.873
		c1.381,4.58,19.575,2.412,21.534,1.174c5.261-3.322,3.15-6.988,5.202-12.496c6.178-16.59,5.366-17.816,38.395-69.262
		c40.614-63.258,30.915-75.454,30.252-76.553c-3.677-6.098-13.185-11.934-35.129,0c-32.66,17.762-69.01,81.026-71.405,81.188
		c-7.773,0.512-17.748,0.809-17.857,7.205c-0.1,5.797,9.807,3.088,8.893,5.66c-4.341,12.225-41.016,68.479-58.899,42.691
		c-12.84-18.516,2.48-53.709,23.609-49.479c21.13,4.23,6.981,27.447,6.981,27.447s0.038,3.111,2.805,1.473
		c12.365-7.32,16.493-39.152-5.609-39.641c-28.29-0.627-42.869,29.115-42.615,46.084c0.258,16.965,2,31.301,20.347,36.801
		C146.497,226.493,180.731,152.802,184.006,150.719z M268.854,65.047c5.515,3.466-19.758,46.436-35.754,69.934
		c-2.322,3.418-36.464,3.787-36.464,3.787S249.044,52.618,268.854,65.047z"/>
</g>
<polygon fill="#FFFFFF" points="9.722,196.392 9.722,148.477 0,148.477 43.686,112.653 87.37,148.304 78.257,148.259 
	78.222,196.392 49.687,196.392 49.687,182.543 33.436,182.543 33.436,196.392 "/>
</svg>
