<?xml version="1.0" encoding="utf-8"?>
<!-- Generator: Adobe Illustrator 15.0.0, SVG Export Plug-In . SVG Version: 6.00 Build 0)  -->
<!DOCTYPE svg PUBLIC "-//W3C//DTD SVG 1.1//EN" "http://www.w3.org/Graphics/SVG/1.1/DTD/svg11.dtd">
<svg version="1.1" id="Layer_1" xmlns="http://www.w3.org/2000/svg" xmlns:xlink="http://www.w3.org/1999/xlink" x="0px" y="0px"
	 width="306.625px" height="182.812px" viewBox="0 0 306.625 182.812" enable-background="new 0 0 306.625 182.812"
	 xml:space="preserve">
<polygon fill="#FFFFFF" stroke="#FFFFFF" stroke-width="2" stroke-miterlimit="10" points="38.72,92.628 149.104,138.079 
	233.566,169.088 252.958,105.219 53.958,54.886 "/>
<path fill="#FFFFFF" stroke="#000000" stroke-width="2" stroke-miterlimit="10" d="M35.356,71.575c0,0-7.105,11.769-2.064,17.237
	c5.646,6.124,47.322,22.915,50.577,28.22c6.309,10.276,2.774,9.773,16.261,13.441c11.749,3.195,9.722,2.234,21.403,0.228
	c11.251-1.934,90.654,33.541,117.617,39.886"/>
<g>
	<path d="M34.044,75.843c4.188,3.385,15.268,7.674,21.081,10.625c16.307,8.279,33.888,14.283,50.5,21.5
		c36.088,15.316,73.793,27.182,111.243,39.78c3.822,1.179,10.589,3.166,14.56,3.866c0-5.646,2.748-12.299,3.742-17.225
		c-10.251-5.779-23.513-0.283-35.273-2.865c-13.525-3.648-26.904-7.775-40.135-12.379c-32.047-11.455-85.656-33.969-116.637-47.188
		C34.342,68.204,33.714,75.218,34.044,75.843"/>
	<g>
		<path d="M33.611,76.093c4.299,3.349,9.696,5.388,14.624,7.609c6.13,2.763,12.1,5.851,18.25,8.572
			c14.208,6.287,28.77,11.824,43.115,17.794c29.565,12.307,60.015,22.328,90.382,32.433c10.187,3.39,20.417,7.403,31.012,9.363
			c0.074,0.014,0.864-0.447,0.865-0.5c0.071-3.316,0.845-6.512,1.723-9.694c0.432-1.565,0.898-3.122,1.331-4.688
			c0.197-0.716,0.373-1.437,0.543-2.16c0.271-1.151-1.054-1.309-1.991-1.713c-6.173-2.661-13.43-1.691-19.928-1.291
			c-3.325,0.204-6.646,0.288-9.968-0.024c-3.981-0.375-7.886-1.781-11.714-2.872c-7.829-2.231-15.605-4.644-23.335-7.197
			c-23.591-7.794-46.624-17.381-69.598-26.807c-14.883-6.106-29.72-12.323-44.531-18.601c-3.075-1.303-6.149-2.61-9.222-3.92
			c-2.369-1.01-5.605-2.657-8.198-1.386C35.262,71.85,32.785,73.867,33.611,76.093c-0.017-0.045,0.888-0.441,0.866-0.5
			c-0.258-0.694,0.078-1.651,0.325-2.295c0.69-1.803,2.151-2.247,3.962-2.165c2.5,0.112,4.933,1.505,7.192,2.468
			c2.522,1.074,5.046,2.146,7.57,3.216c11.2,4.75,22.418,9.457,33.656,14.115c22.774,9.439,45.611,18.8,68.775,27.248
			c7.853,2.863,15.809,5.445,23.794,7.908c4.356,1.344,8.731,2.626,13.118,3.867c4.378,1.24,8.559,2.396,13.13,2.544
			c7.892,0.254,15.816-1.591,23.634,0.161c1.794,0.402,3.488,1.116,5.104,1.98c0.268,0.144-1.209,4.692-1.337,5.139
			c-1.136,3.96-2.316,7.937-2.405,12.086c0.288-0.167,0.577-0.333,0.865-0.5c-5.868-1.086-11.649-2.891-17.3-4.787
			c-7.612-2.555-15.234-5.081-22.853-7.618c-15.208-5.065-30.401-10.18-45.483-15.611c-14.977-5.395-29.741-11.264-44.41-17.44
			c-14.306-6.024-28.929-11.286-42.923-18.036c-4.365-2.105-8.728-4.175-13.138-6.185c-3.844-1.751-7.922-3.481-11.276-6.094
			C34.373,75.512,33.705,76.166,33.611,76.093L33.611,76.093z"/>
	</g>
</g>
<path fill="#FFFFFF" stroke="#000000" stroke-width="2" stroke-miterlimit="10" d="M270.518,150.307
	c21.448-11.633,29.525-35.498,20.167-45.469c-11.274-12.017-46.775,10.837-61.257,36.631c-4.459,7.939-79.124-20.736-79.124-20.736
	S14.102,64.402,11.805,58.786C9.509,53.169,33.412,5.858,53.928,10.247c19.255,4.118,105.861,36.056,121.226,41.661
	c22.481,8.201,114.505,43.464,116.001,54.112"/>
<path fill="#FFFFFF" stroke="#000000" stroke-width="2" stroke-miterlimit="10" d="M271.551,154.815
	c-11.205,12.397-28.422,22.274-37.947,12.309c-7.92-8.283-4.047-27.739,7.16-40.136c11.203-12.398,27.18-16.219,35.682-8.535
	C284.947,126.139,282.754,142.418,271.551,154.815z"/>
<ellipse transform="matrix(-0.7801 -0.6257 0.6257 -0.7801 362.276 416.7628)" stroke="#000000" stroke-width="2" stroke-miterlimit="10" cx="254.386" cy="144.71" rx="15.083" ry="25.158"/>
<g>
	<path fill="#FFFFFF" d="M239.83,140.4c13.128-13.447,27.77-4.343,24.066,11.609c-2.021,8.709-12.509,15.618-21.047,14.299
		c-4.892-0.756-7.153-4.938-7.892-8.923C233.348,148.672,239.83,140.4,239.83,140.4z"/>
	<g>
		<path d="M240.263,140.15c3.49-3.478,7.709-6.121,12.759-6c3.349,0.081,6.341,1.847,8.362,4.443
			c5.193,6.672,2.493,16.727-3.028,22.188c-5.955,5.889-18.052,8.654-22.107-0.677C233.434,153.632,236.143,145.479,240.263,140.15
			c-0.187,0.241-0.675,0.254-0.865,0.5c-4.915,6.355-7.812,17.099-1.659,23.589c5.772,6.089,16.472,0.688,21.483-3.958
			c6.707-6.22,8.495-19.357,0.043-24.969c-6.692-4.443-15.004,0.492-19.867,5.338C239.624,140.425,240.033,140.379,240.263,140.15z"
			/>
	</g>
</g>
<g>
	<path fill="#000405" d="M248.875,118.719c-0.25-1.75,9.5-7.75,11.75-9c5.5-3.25,12.75-7,19.25-7.25
		c7.5-0.25,10.834,2.269,13.084,8.769c2.5,6.75,1.848,13.155-2.152,18.655c-3.25,4.5-5.88,8.957-9.88,12.957
		c1.5-8.5,1.338-21.059-8.024-26.758C267.152,112.593,248.875,118.719,248.875,118.719z"/>
	<g>
		<path d="M249.308,118.469c0.026-1.538,2.762-3.105,3.812-3.884c2.354-1.742,4.854-3.339,7.394-4.796
			c7.271-4.171,15.981-8.791,24.638-6.515c6.846,1.8,9.091,11.141,8.808,17.223c-0.213,4.572-2.56,8.146-5.085,11.772
			c-2.621,3.763-5.163,7.537-8.379,10.83c0.288-0.167,0.577-0.333,0.865-0.5c0.903-5.299,1.051-10.75-0.312-15.984
			c-1.212-4.656-4.54-10.098-9.458-11.474c-4.241-1.187-9.328,0.023-13.506,0.934C255.126,116.72,252.18,117.511,249.308,118.469
			c-0.311,0.104-0.558,0.397-0.865,0.5c6.656-2.22,14.839-4.747,21.874-3.421c4.992,0.94,8.282,6.537,9.688,10.954
			c1.687,5.301,1.413,11.185,0.49,16.598c0.027-0.162,0.731-0.362,0.865-0.5c3.619-3.705,6.4-8.031,9.372-12.247
			c3.1-4.397,4.587-8.97,3.941-14.376c-0.453-3.801-1.98-8.167-4.698-10.956c-2.663-2.731-6.884-2.967-10.45-2.755
			c-7.002,0.416-13.546,4.322-19.473,7.774c-2.033,1.185-4.035,2.43-5.976,3.761c-1.382,0.949-5.601,3.168-5.634,5.168
			C248.444,118.804,249.305,118.646,249.308,118.469z"/>
	</g>
</g>
</svg>
