<?xml version="1.0" encoding="utf-8"?>
<!-- Generator: Adobe Illustrator 15.0.0, SVG Export Plug-In . SVG Version: 6.00 Build 0)  -->
<!DOCTYPE svg PUBLIC "-//W3C//DTD SVG 1.1//EN" "http://www.w3.org/Graphics/SVG/1.1/DTD/svg11.dtd">
<svg version="1.1" id="Layer_1" xmlns="http://www.w3.org/2000/svg" xmlns:xlink="http://www.w3.org/1999/xlink" x="0px" y="0px"
	 width="121.094px" height="157.718px" viewBox="0 0 121.094 157.718" enable-background="new 0 0 121.094 157.718"
	 xml:space="preserve">
<polygon fill="#000202" stroke="#000000" stroke-miterlimit="10" points="44.405,57.615 105.031,58.072 100.646,144.5 40.401,144.5 
	"/>
<polygon fill="#FCFCFC" stroke="#000000" stroke-miterlimit="10" points="44.281,58.365 103.031,58.687 98.781,142.5 40.401,142.5 
	"/>
<rect x="50.719" y="63.5" stroke="#000000" stroke-miterlimit="10" width="16" height="13"/>
<rect x="49.719" y="63.5" fill="#FFFFFF" stroke="#000000" stroke-miterlimit="10" width="14" height="11"/>
<rect x="81.719" y="63.5" stroke="#000000" stroke-miterlimit="10" width="15" height="15"/>
<rect x="75.719" y="117.5" stroke="#000000" stroke-miterlimit="10" width="15" height="16"/>
<rect x="48.719" y="117.5" stroke="#000000" stroke-miterlimit="10" width="15" height="17"/>
<g>
	<path fill="#FFFFFF" d="M25.967,89.577c4.742,8.433,29.484,13.146,35.353,10.511c15.592-6.278-3.814-28.994-12.792-30.623
		L25.967,89.577z"/>
	<g>
		<path d="M25.101,90.077c1.998,3.354,5.817,5.282,9.279,6.773c4.417,1.903,9.167,3.084,13.904,3.849
			c6.225,1.004,12.739,1.211,17.575-3.45c6.105-5.885-1.146-16.021-5.333-20.629c-2.578-2.838-5.67-5.512-9.211-7.06
			c-1.704-0.745-2.685-0.458-4.033,0.743C39.888,76.894,32.494,83.485,25.101,90.077c0.485-0.432,1.243-0.564,1.732-1
			c7.52-6.704,15.04-13.408,22.561-20.112c-0.578,0.333-1.155,0.667-1.732,1c5.968,1.222,11.138,7.081,14.468,11.807
			c3.281,4.658,6.588,12.052,1.685,16.779c-1.845,1.778-4.799,1.786-7.193,1.765c-3.733-0.035-7.474-0.67-11.106-1.487
			c-6.253-1.408-15.148-3.819-18.681-9.751C26.82,89.056,25.098,90.072,25.101,90.077z"/>
	</g>
</g>
<path fill="#FFFFFF" stroke="#000000" stroke-width="2" stroke-miterlimit="10" d="M29.16,3.648c0,0-11.369,77.372-3.191,85.352
	c8.41,8.205,19.544,0.475,23.75-18.631c3.252-14.777,3.538-56.444,3.538-56.444S38.916,8.756,29.16,3.648z"/>
<ellipse transform="matrix(0.9999 0.0143 -0.0143 0.9999 0.8538 -0.3684)" stroke="#000000" stroke-width="2" stroke-miterlimit="10" cx="26.102" cy="59.322" rx="12.201" ry="12.045"/>
<circle fill="#FFFFFF" stroke="#000000" stroke-width="2" stroke-miterlimit="10" cx="24.802" cy="58.73" r="10.393"/>
<g>
	<path fill="#0C0C0C" d="M27.931,92.105c5.959,2.837,15.909,6.479,21.234,1.306c5.067-4.678,3.686-12.948,3.021-18.958
		c-0.894-10.156-3.455,1.264-5.085,5.928c-1.821,4.975-8.146,10.133-13.42,11.809C31.923,92.663,29.673,92.631,27.931,92.105
		c0.978,1.516,2.968,2.294,4.203,3.312"/>
	<g>
		<path d="M27.498,92.355c6.054,2.849,13.835,5.881,20.158,2.23c6.975-4.027,5.814-13.001,5.032-19.775
			c-0.116-1.007,0.02-5.459-1.857-4.376c-1.561,0.901-1.97,3.249-2.481,4.836c-1.19,3.697-2.058,7.03-4.631,10.071
			c-3.755,4.438-9.42,8.008-15.354,6.513C28.254,91.828,27.536,92.405,27.498,92.355c1.127,1.47,2.752,2.221,4.203,3.312
			c0.11,0.083,0.768-0.574,0.866-0.5c-1.451-1.092-3.077-1.843-4.203-3.312C28.075,92.022,27.786,92.188,27.498,92.355
			c5.982,1.507,11.904-2.388,16.044-6.402c2.689-2.607,3.964-5.606,5.029-9.102c0.576-1.891,1.062-5.338,2.694-6.662
			c-0.289,0.167-0.577,0.333-0.866,0.5c1.267-0.55,1.689,6.957,1.781,7.844c0.414,4.009,0.522,8.175-1.125,11.938
			c-3.987,9.102-16.162,4.457-22.692,1.385C28.186,91.771,27.664,92.433,27.498,92.355L27.498,92.355z"/>
	</g>
</g>
<rect x="75.719" y="117.5" fill="#FFFFFF" stroke="#000000" stroke-miterlimit="10" width="13" height="13"/>
<rect x="48.719" y="117.5" fill="#FFFFFF" stroke="#000000" stroke-miterlimit="10" width="12" height="14"/>
<rect x="81.719" y="63.5" fill="#FFFFFF" stroke="#000000" stroke-miterlimit="10" width="12" height="12"/>
</svg>
