<?xml version="1.0" encoding="utf-8"?>
<!-- Generator: Adobe Illustrator 15.0.0, SVG Export Plug-In . SVG Version: 6.00 Build 0)  -->
<!DOCTYPE svg PUBLIC "-//W3C//DTD SVG 1.1//EN" "http://www.w3.org/Graphics/SVG/1.1/DTD/svg11.dtd">
<svg version="1.1" id="Layer_1" xmlns="http://www.w3.org/2000/svg" xmlns:xlink="http://www.w3.org/1999/xlink" x="0px" y="0px"
	 width="364.368px" height="331.035px" viewBox="0 0 364.368 331.035" enable-background="new 0 0 364.368 331.035"
	 xml:space="preserve">
<g>
	<g>
		<path d="M142.198,240.505c1.169,0,2.325-2,3.464-2C144.493,238.505,143.337,240.505,142.198,240.505L142.198,240.505z"/>
	</g>
</g>
<g>
	<g>
		<path d="M34.934,104.19c5.986-9.603,11.622-19.413,18.626-28.334c3.718-4.735,7.847-9.173,12.547-12.948
			c1.308-1.05,2.682-2.014,4.09-2.922c-1.799,1.161,0.988-0.466,0.945-0.445c0.736-0.354,1.492-0.664,2.25-0.966
			c1.32-0.525,2.685-0.926,4.062-1.268c0.947-0.235,1.068-0.525,1.515,0.461c0.376,0.831,0.607,1.722,0.984,2.558
			c-0.042-0.093,3.531-1.852,3.464-2c-0.289-0.639-0.53-1.27-0.753-1.934c-0.43-1.278-0.468-1.375-1.745-1.085
			c-1.583,0.359-3.123,0.894-4.629,1.493c-2.461,0.979-4.759,2.33-7.04,3.663c-5.591,3.268-10.404,7.412-14.765,12.189
			c-9.187,10.065-15.847,22.04-23.015,33.538C32.084,105.204,34.305,105.2,34.934,104.19L34.934,104.19z"/>
	</g>
</g>
<g>
	<g>
		<path d="M31.47,104.996c11.905,0.144,23.285,6.646,33.595,11.937c5.204,2.67,10.391,5.415,15.818,7.612
			c7.081,2.867,14.385,5.268,21.613,7.731c30.237,10.308,60.587,20.577,91.167,29.827c8.403,2.542,16.68,5.081,24.844,8.341
			c8.123,3.244,16.18,6.685,24.592,9.13c0.906,0.264,2.6-2.252,3.464-2c-14.993-4.359-28.979-11.494-43.987-15.855
			c-15.365-4.464-30.526-9.593-45.732-14.558c-15.157-4.949-30.292-9.98-45.413-15.04c-13.227-4.425-26.436-8.792-38.886-15.131
			c-11.554-5.882-24.239-13.834-37.609-13.996C33.773,102.981,32.601,105.009,31.47,104.996L31.47,104.996z"/>
	</g>
</g>
<g>
	<g>
		<path d="M247.861,177.503c1.806-4.123,4.499-7.672,7.733-10.78c1.643-1.579,3.441-2.99,5.291-4.316
			c1.056-0.757,5.52-3.285,0.673-0.641c1.418-0.773,2.87-1.485,4.333-2.169c9.744-4.559,20.293-7.376,30.835-9.36
			c4.918-0.925,9.88-1.617,14.856-2.118c4.844-0.487,10.006-1.184,14.69,0.488c3.813,1.361,5.792,4.768,5.084,8.72
			c-0.967,5.396-5.856,9.158-9.862,12.338c-9.496,7.537-19.652,14.25-28.591,22.478c1.666-1.534,4.38-1.951,6.062-3.5
			c5.508-5.069,11.482-9.572,17.478-14.042c5.709-4.256,12.093-8.312,16.959-13.55c2.776-2.987,5.164-7.337,3.774-11.483
			c-1.485-4.432-7.105-5.399-11.109-5.501c-4.688-0.12-9.525,0.613-14.161,1.22c-5.17,0.678-10.307,1.605-15.394,2.745
			c-10.254,2.297-20.408,5.594-29.657,10.64c-9.918,5.41-20.328,11.531-25.06,22.335c0.248-0.566,2.527-1.418,3.049-1.721
			C245.413,178.957,247.583,178.139,247.861,177.503L247.861,177.503z"/>
	</g>
</g>
<g>
	<g>
		<path d="M79.954,60.327c31.178,8.356,62.027,17.881,92.77,27.704c15.437,4.932,30.846,9.947,46.261,14.943
			c13.691,4.437,27.635,7.925,41.439,11.971c7.938,2.326,15.801,4.934,23.416,8.177c5.939,2.53,11.438,5.811,17.156,8.777
			c5.741,2.98,11.541,5.851,17.191,9.003c4.273,2.384,9.223,4.932,12.402,8.763c0.162,0.195,3.34-2.149,3.465-2
			c-2.555-3.077-6.299-5.196-9.688-7.206c-4.676-2.77-9.529-5.239-14.363-7.715c-10.116-5.181-19.855-10.784-30.56-14.736
			c-13.521-4.993-27.584-8.352-41.438-12.263c-14.862-4.196-29.482-9.296-44.176-14.043
			c-36.587-11.819-73.267-23.419-110.413-33.375C82.487,58.077,80.843,60.565,79.954,60.327L79.954,60.327z"/>
	</g>
</g>
<g>
	<g>
		<path d="M56.362,114.601c0.864,6.157-0.607,12.375-0.991,18.516c-0.17,2.721-0.069,5.465,0.72,8.088
			c0.628,2.091,2.354,3.233,4.182,4.237c4.305,2.364,9.278,3.502,13.94,4.936c6.203,1.908,12.474,3.829,18.478,6.306
			c2.95,1.217,5.845,2.64,8.726,4.015c2.771,1.322,5.34,2.976,6.466,5.938c0.845,2.223,0.771,4.759,2.074,6.806
			c1.086,1.707,3.407,2.686,5.184,3.424c4.719,1.961,10.01,2.762,15.066,3.254c4.036,0.395,8.098,0.426,11.802-1.427
			c1.07-0.536,2.1-1.167,3.134-1.769c0.451-0.262,0.9-0.525,1.348-0.793c2.099-1.254-3.163,1.531-0.357,0.287
			c3.342-1.482,7.229-0.776,10.647,0.002c10.918,2.486,21.773,5.613,32.516,8.763c10.851,3.181,21.596,6.755,32.041,11.095
			c10.812,4.493,21.023,10.223,31.759,14.869c0.751,0.325,2.757-2.307,3.464-2c-7.137-3.089-13.988-6.771-21.01-10.104
			c-6.719-3.19-13.608-6.041-20.586-8.612c-14.029-5.173-28.471-9.165-42.923-12.958c-6.082-1.596-12.783-4.277-19.151-3.855
			c-3.237,0.213-6.076,2.244-8.775,3.852c-1.476,0.877,2.886-1.479,0.577-0.396c-0.387,0.182-0.789,0.327-1.191,0.471
			c-0.957,0.345-1.964,0.523-2.968,0.664c-2.259,0.312-4.601,0.117-6.861-0.086c-5.095-0.455-10.288-1.39-15.066-3.254
			c-2.962-1.156-5.336-2.725-6.189-5.906c-0.498-1.856-0.744-3.722-1.556-5.485c-0.971-2.11-3.37-3.411-5.324-4.448
			c-8.814-4.678-18.375-7.683-27.858-10.648c-3.431-1.073-6.893-2.027-10.259-3.296c-2.712-1.023-6.443-2.412-7.655-5.296
			c-1.696-4.033-0.981-8.989-0.528-13.194c0.5-4.639,1.245-9.33,0.591-13.991C59.891,113.067,56.289,114.078,56.362,114.601
			L56.362,114.601z"/>
	</g>
</g>
<g>
	<g>
		<path d="M261.659,173.957c-4.177,6.143-8.275,12.441-11.121,19.33c-1.912,4.621-3.486,10.537-0.345,14.977
			c4.953,6.999,14.581,4.621,20.927,1.412c13.203-6.678,25.782-17.395,32.463-30.775c2.516-5.038,4.861-11.097,4.008-16.828
			c-0.916-6.146-6.871-7.634-12.248-7.345c-7.473,0.402-14.223,3.762-20.485,7.598c-8.2,5.022-14.716,12.256-19.077,20.812
			c0.5-0.981,2.949-0.989,3.465-2c2.984-5.856,6.953-11.058,11.83-15.465c4.853-4.385,9.602-6.845,16.107-8.288
			c4.256-0.944,9.454-1.396,13.354,0.945c2.851,1.709,3.754,5.036,3.766,8.158c0.023,7.679-4.325,16.179-8.788,22.212
			c-4.228,5.715-9.783,10.734-15.358,15.086c-1.012,0.791-2.052,1.545-3.104,2.282c-0.579,0.405-1.17,0.793-1.762,1.179
			c-0.306,0.195-0.612,0.389-0.92,0.58c0.709-0.41,0.737-0.438,0.084-0.086c-2.193,1.143-4.512,2.049-6.916,2.633
			c-4.104,1-8.344,0.514-11.773-2.047c-4.915-3.668-4.268-9.678-2.561-14.896c2.535-7.744,7.379-14.792,11.92-21.472
			C264.456,172.938,262.34,172.955,261.659,173.957L261.659,173.957z"/>
	</g>
</g>
<g>
	<g>
		<path d="M122.352,182.093c-4.091-0.116-7.33,1.049-10.796,3.062c-2.757,1.602-5.134,3.397-6.063,6.604
			c-2.377,8.205,8.62,14.23,15.357,14.283c2.812,0.022,5.376-1.738,7.646-3.209c2.231-1.444,3.159-4.11,3.275-6.652
			c0.337-7.359-5.936-12.932-12.734-14.086c-1.031-0.176-2.471,2.168-3.464,2c5.995,1.018,10.962,4.988,12.425,11.013
			c0.553,2.278,0.403,4.737-0.557,6.882c-0.415,0.926-1.06,1.723-1.812,2.395c-0.863,0.674-0.294,0.363,1.707-0.928
			c-0.334,0.148-0.69,0.246-1.042,0.342c-0.644,0.178-1.316,0.224-1.979,0.246c-6.229,0.22-14.438-4.586-15.539-11.057
			c-0.451-2.648,0.666-5.236,2.443-7.146c0.407-0.438,0.879-0.809,1.353-1.17c-2.075,1.084-2.391,1.283-0.948,0.593
			c0.475-0.209,0.972-0.364,1.466-0.519c1.868-0.586,3.856-0.705,5.799-0.649C120.038,184.126,121.233,182.062,122.352,182.093
			L122.352,182.093z"/>
	</g>
</g>
<g>
	<g>
		<path d="M130.404,187.435c-0.734,11.979-0.888,24.604-5.38,35.908c-0.997,2.508-2.331,4.936-4.243,6.863
			c-0.476,0.479-1.013,0.896-1.573,1.271c3.58-2.394,2.328-1.263,0.94-0.882c-1.165,0.318-2.395,0.287-3.58,0.117
			c-1.152-0.166-1.127-5.105-1.179-6.148c-0.127-2.555,0.002-5.123,0.185-7.672c0.35-4.875,1.114-9.717,1.914-14.536
			c-0.135,0.812-3.321,1.142-3.464,2c-0.888,5.341-1.681,10.697-2.02,16.104c-0.172,2.75-0.17,5.508,0.064,8.254
			c0.095,1.115,0.278,2.218,0.501,3.312c0.195,0.961,1.16,0.791,2.035,0.812c2.708,0.07,4.986-1.521,7.218-2.84
			c2.271-1.342,3.875-3.234,5.175-5.515c3.526-6.181,4.63-13.8,5.492-20.753c0.754-6.08,1.003-12.189,1.377-18.299
			C133.825,186.144,130.451,186.675,130.404,187.435L130.404,187.435z"/>
	</g>
</g>
<g>
	<g>
		<path d="M114.024,232.841c12.591,0.988,20.229,21.01,33.959,13.265c2.486-1.401,5.217-2.712,6.916-5.094
			c1.717-2.406,1.031-5.378-0.264-7.782c-3.386-6.288-10.78-10.792-16.95-13.919c-0.672-0.341-2.837,2.317-3.464,2
			c5.718,2.897,11.383,6.665,15.443,11.692c1.622,2.011,2.909,4.445,2.797,7.086c-0.052,1.227-0.614,2.345-1.312,3.322
			c-0.419,0.588-0.973,1.072-1.518,1.541c-0.627,0.452-0.64,0.488-0.04,0.104c-0.513,0.245-1.078,0.397-1.621,0.558
			c-5.743,1.674-10.983-2.387-15.117-5.818c-4.517-3.752-9.188-8.471-15.367-8.955C116.376,230.755,115.103,232.927,114.024,232.841
			L114.024,232.841z"/>
	</g>
</g>
<g>
	<g>
		<path d="M137.853,220.16c1.153-13.182,1.386-26.746,4.533-39.652c-0.213,0.873-3.241,1.084-3.464,2
			c-3.147,12.906-3.38,26.471-4.533,39.652C134.453,221.423,137.784,220.946,137.853,220.16L137.853,220.16z"/>
	</g>
</g>
<g>
	<g>
		<path d="M136.302,199.884c11.793,0,23.586,0,35.38,0c5.896,0,11.793,0,17.689,0c0.655,0,1.312,0,1.967,0
			c-0.006,0.609-0.012,1.221-0.02,1.83c-0.015,1.527-0.029,3.055-0.043,4.582c-0.029,3.063-0.057,6.127-0.088,9.189
			c-0.238,23.469-0.768,46.936-2.798,70.326c1.155-0.667,2.31-1.333,3.464-2c-15.572,0.475-31.142,0.206-46.717,0.059
			c-1.852-0.019-3.704-0.031-5.557-0.041c-0.944-0.006-1.889-0.01-2.834-0.014c-0.638-0.002-1.275-0.003-1.913-0.004
			c-1.005,0.318-1.279,0.008-0.825-0.93c0.58-3.852,0.744-7.756,0.788-11.643c0.09-7.869-0.358-15.707,0.383-23.562
			c-0.07,0.743-3.389,1.206-3.464,2c-0.713,7.556-0.378,15.11-0.379,22.685c0,3.879-0.194,7.745-0.667,11.596
			c-0.153,1.246-0.858,1.854,0.698,1.854c0.954,0.001,1.909,0.004,2.863,0.008c2.175,0.008,4.35,0.023,6.524,0.042
			c15.881,0.136,31.755,0.433,47.634-0.05c0.39-0.012,3.438-1.705,3.464-2c2.004-23.085,2.543-46.244,2.789-69.404
			c0.059-5.509,0.104-11.016,0.158-16.523c0,0.027-17.116,0-18.672,0c-12.121,0-24.242,0-36.363,0
			C138.597,197.884,137.441,199.884,136.302,199.884L136.302,199.884z"/>
	</g>
</g>
<g>
	<g>
		<path d="M140.889,203.814c0,1.966,0,3.932,0,5.896c0,0.983,0,1.967,0,2.949c0,0.655,0,1.312,0,1.965
			c-0.328,0.978-0.006,1.306,0.965,0.983c2.901,0,5.802,0,8.704,0c0.406,0,3.4-1.661,3.464-2c0.666-3.524,1.369-6.953,1.448-10.548
			c0.023-1.07,0.019-2.141,0.02-3.211c0-0.084-4.302,0.188-4.693,0.221c-2.601,0.217-5.182,0.662-7.755,1.09
			c-1.241,0.205-2.244,1.797-3.464,2c2.578-0.429,5.154-0.832,7.755-1.09c1.237-0.123,2.479-0.174,3.72-0.211
			c0.956-0.334,1.28-0.029,0.972,0.911c-0.001,0.763-0.009,1.526-0.02,2.29c-0.051,3.591-0.783,7.031-1.447,10.548
			c1.155-0.667,2.309-1.333,3.464-2c-2.582,0-5.164,0-7.746,0c-1.302,0-1.923,0.547-1.923-0.983c0-1.31,0-2.621,0-3.931
			c0-2.293,0-4.586,0-6.88C144.353,202.455,140.889,203.123,140.889,203.814L140.889,203.814z"/>
	</g>
</g>
<g>
	<g>
		<path d="M174.596,203.814c0,1.966,0,3.932,0,5.896c0,0.983,0,1.967,0,2.949c0,0.655,0,1.312,0,1.965
			c-0.328,0.978-0.006,1.306,0.965,0.983c2.901,0,5.802,0,8.704,0c0.405,0,3.399-1.661,3.464-2
			c0.666-3.524,1.369-6.953,1.447-10.548c0.023-1.07,0.02-2.141,0.021-3.211c0-0.084-4.302,0.188-4.692,0.221
			c-2.602,0.217-5.183,0.662-7.755,1.09c-1.241,0.205-2.244,1.797-3.464,2c2.578-0.429,5.154-0.832,7.755-1.09
			c1.237-0.123,2.479-0.174,3.72-0.211c0.955-0.334,1.279-0.029,0.972,0.911c-0.001,0.763-0.009,1.526-0.021,2.29
			c-0.051,3.591-0.782,7.031-1.446,10.548c1.155-0.667,2.31-1.333,3.464-2c-2.582,0-5.164,0-7.746,0
			c-1.302,0-1.923,0.547-1.923-0.983c0-1.31,0-2.621,0-3.931c0-2.293,0-4.586,0-6.88
			C178.06,202.455,174.596,203.123,174.596,203.814L174.596,203.814z"/>
	</g>
</g>
<g>
	<g>
		<path d="M172.596,269.648c0,1.967,0,3.932,0,5.896c0,0.982,0,1.965,0,2.949c0,0.654,0,1.311,0,1.965
			c-0.328,0.978-0.006,1.306,0.965,0.982c2.901,0,5.802,0,8.704,0c0.406,0,3.399-1.661,3.464-2
			c0.666-3.525,1.369-6.951,1.447-10.548c0.023-1.069,0.02-2.142,0.021-3.211c0-0.084-4.302,0.188-4.693,0.221
			c-2.601,0.218-5.182,0.661-7.755,1.089c-1.241,0.207-2.244,1.797-3.464,2c2.578-0.429,5.154-0.83,7.755-1.089
			c1.237-0.122,2.479-0.174,3.72-0.211c0.955-0.334,1.279-0.03,0.972,0.911c-0.001,0.764-0.009,1.525-0.021,2.29
			c-0.051,3.591-0.782,7.03-1.446,10.548c1.155-0.667,2.31-1.333,3.464-2c-2.582,0-5.164,0-7.746,0
			c-1.302,0-1.923,0.549-1.923-0.982c0-1.311,0-2.621,0-3.932c0-2.293,0-4.587,0-6.88
			C176.06,268.289,172.596,268.957,172.596,269.648L172.596,269.648z"/>
	</g>
</g>
<g>
	<g>
		<path d="M137.286,269.648c0,1.967,0,3.932,0,5.896c0,0.982,0,1.965,0,2.949c0,0.654,0,1.311,0,1.965
			c-0.328,0.978-0.006,1.306,0.965,0.982c2.901,0,5.802,0,8.704,0c0.406,0,3.4-1.661,3.464-2c0.666-3.525,1.369-6.951,1.448-10.548
			c0.023-1.069,0.019-2.142,0.02-3.211c0-0.084-4.302,0.188-4.693,0.221c-2.601,0.218-5.182,0.661-7.755,1.089
			c-1.241,0.207-2.244,1.797-3.464,2c2.578-0.429,5.154-0.83,7.755-1.089c1.237-0.122,2.479-0.174,3.72-0.211
			c0.956-0.334,1.28-0.03,0.972,0.911c-0.001,0.764-0.009,1.525-0.02,2.29c-0.051,3.591-0.783,7.03-1.447,10.548
			c1.155-0.667,2.309-1.333,3.464-2c-2.582,0-5.164,0-7.746,0c-1.302,0-1.923,0.549-1.923-0.982c0-1.311,0-2.621,0-3.932
			c0-2.293,0-4.587,0-6.88C140.75,268.289,137.286,268.957,137.286,269.648L137.286,269.648z"/>
	</g>
</g>
</svg>
