<?xml version="1.0" encoding="utf-8"?>
<!-- Generator: Adobe Illustrator 15.0.0, SVG Export Plug-In . SVG Version: 6.00 Build 0)  -->
<!DOCTYPE svg PUBLIC "-//W3C//DTD SVG 1.1//EN" "http://www.w3.org/Graphics/SVG/1.1/DTD/svg11.dtd">
<svg version="1.1" id="Layer_1" xmlns="http://www.w3.org/2000/svg" xmlns:xlink="http://www.w3.org/1999/xlink" x="0px" y="0px"
	 width="196.49px" height="179.253px" viewBox="0 0 196.49 179.253" enable-background="new 0 0 196.49 179.253"
	 xml:space="preserve">
<ellipse fill="#04A8CE" cx="97.798" cy="84.788" rx="60.336" ry="60.233"/>
<path fill="#FFFFFF" d="M156.526,56.661c-2.059-3.413-7.381-6.681-19.666,0c-18.285,9.943-38.633,45.36-39.975,45.449
	c-4.352,0.287-9.936,0.453-9.996,4.033c-0.057,3.246,5.49,1.729,4.979,3.17c-2.432,6.844-22.963,38.335-32.973,23.899
	c-7.189-10.365,1.389-30.066,13.217-27.698s3.908,15.365,3.908,15.365s0.02,1.741,1.57,0.823c6.922-4.099,9.232-21.918-3.141-22.191
	c-15.836-0.35-24,16.301-23.855,25.799c0.143,9.498,1.117,17.523,11.388,20.602c16.637,4.986,35.801-36.266,37.635-37.433
	c1.833-1.167,23-3.915,21.167-0.167c-3.031,6.197-19.332,30.754-17.654,36.316c0.771,2.564,10.957,1.35,12.055,0.658
	c2.943-1.859,1.764-3.912,2.912-6.996c3.457-9.287,3.002-9.975,21.494-38.775C162.327,64.104,156.896,57.276,156.526,56.661z
	 M127.103,99.667c-1.303,1.914-20.414,2.121-20.414,2.121s29.338-48.229,40.428-41.27C150.204,62.458,136.058,86.514,127.103,99.667
	z"/>
</svg>
