<?xml version="1.0" encoding="utf-8"?>
<!-- Generator: Adobe Illustrator 15.0.0, SVG Export Plug-In . SVG Version: 6.00 Build 0)  -->
<!DOCTYPE svg PUBLIC "-//W3C//DTD SVG 1.1//EN" "http://www.w3.org/Graphics/SVG/1.1/DTD/svg11.dtd">
<svg version="1.1" id="Capa_1" xmlns="http://www.w3.org/2000/svg" xmlns:xlink="http://www.w3.org/1999/xlink" x="0px" y="0px"
	 width="800px" height="600px" viewBox="0 0 800 600" enable-background="new 0 0 800 600" xml:space="preserve">
<g id="interface_-_arrow_bottom">
	<g>
		<path d="M656.2,198.914c-8.144-8.143-21.343-8.143-29.486,0l-226.8,247.715L173.286,199c-8.143-8.143-21.343-8.143-29.486,0
			c-8.143,8.143-8.143,21.343,0,29.571L379.857,486.4c1.029,2.484,2.486,4.8,4.458,6.771c4.286,4.285,9.943,6.171,15.514,5.914
			c5.657,0.257,11.399-1.629,15.685-5.914c2.059-2.058,3.602-4.372,4.543-6.943L656.028,228.4
			C664.257,220.343,664.257,207.143,656.2,198.914z"/>
	</g>
</g>
</svg>
